<?xml version="1.0" encoding="utf-8"?>
<!-- Generator: Adobe Illustrator 16.0.4, SVG Export Plug-In . SVG Version: 6.00 Build 0)  -->
<!DOCTYPE svg PUBLIC "-//W3C//DTD SVG 1.1//EN" "http://www.w3.org/Graphics/SVG/1.1/DTD/svg11.dtd">
<svg version="1.1" id="Layer_1" xmlns="http://www.w3.org/2000/svg" xmlns:xlink="http://www.w3.org/1999/xlink" x="0px" y="0px"
	 width="400px" height="100px" viewBox="0 0 400 100" enable-background="new 0 0 400 100" xml:space="preserve">
<linearGradient id="SVGID_1_" gradientUnits="userSpaceOnUse" x1="21.1982" y1="15.8628" x2="21.1982" y2="96.5302">
	<stop  offset="0.1354" style="stop-color:#FFFFFF"/>
	<stop  offset="0.3305" style="stop-color:#C3C3C3"/>
	<stop  offset="0.7134" style="stop-color:#515151"/>
	<stop  offset="0.8833" style="stop-color:#242424"/>
</linearGradient>
<path fill="url(#SVGID_1_)" stroke="#FFFFFF" stroke-miterlimit="10" d="M28.765,34.423c0.754,0.87,1.624,1.217,2.667,1.217
	c2.899,0,4.754-2.492,4.754-5.855c0-6.378-6.61-6.958-9.335-6.958c-7.479,0-13.393,4.349-13.393,10.379
	c0,8.523,11.886,12.061,11.886,21.974c0,4.871-2.841,7.713-6.726,7.713c-3.71,0-5.566-2.668-5.566-5.568
	c0-3.998,3.653-5.449,6.784-5.449c-0.174-3.015-3.073-3.827-5.103-3.827c-4.058,0-8.523,3.247-8.523,9.51
	c0,7.072,5.682,9.971,12.292,9.971c8.407,0,16.292-4.754,16.292-14.494c0-12.524-13.046-13.684-13.046-22.207
	c0-3.479,2.146-5.276,5.334-5.276c3.188,0,4.291,1.855,4.291,3.885C31.374,31.35,30.33,33.496,28.765,34.423z"/>
<linearGradient id="SVGID_2_" gradientUnits="userSpaceOnUse" x1="47.4067" y1="15.8628" x2="47.4067" y2="96.5302">
	<stop  offset="0.1354" style="stop-color:#FFFFFF"/>
	<stop  offset="0.3305" style="stop-color:#C3C3C3"/>
	<stop  offset="0.7134" style="stop-color:#515151"/>
	<stop  offset="0.8833" style="stop-color:#242424"/>
</linearGradient>
<path fill="url(#SVGID_2_)" stroke="#FFFFFF" stroke-miterlimit="10" d="M47.377,24.973c-2.551,0-4.581,2.087-4.581,4.638
	c0,2.552,2.029,4.581,4.581,4.581c2.551,0,4.639-2.029,4.639-4.581C52.016,27.06,49.928,24.973,47.377,24.973z"/>
<linearGradient id="SVGID_3_" gradientUnits="userSpaceOnUse" x1="210.0459" y1="15.8628" x2="210.0459" y2="96.5302">
	<stop  offset="0.1354" style="stop-color:#FFFFFF"/>
	<stop  offset="0.3305" style="stop-color:#C3C3C3"/>
	<stop  offset="0.7134" style="stop-color:#515151"/>
	<stop  offset="0.8833" style="stop-color:#242424"/>
</linearGradient>
<path fill="url(#SVGID_3_)" stroke="#FFFFFF" stroke-miterlimit="10" d="M210.017,24.973c-2.551,0-4.58,2.087-4.58,4.638
	c0,2.552,2.029,4.581,4.58,4.581s4.639-2.029,4.639-4.581C214.655,27.06,212.567,24.973,210.017,24.973z"/>
<g>
	<path fill="none" stroke="#FFFFFF" stroke-miterlimit="10" d="M85.414,42.25c0-1.449-0.348-2.377-1.45-2.377
		c-2.899,0-5.798,6.436-7.016,11.945C81.471,51.586,85.414,47.121,85.414,42.25z"/>
	<linearGradient id="SVGID_4_" gradientUnits="userSpaceOnUse" x1="63.5542" y1="15.8628" x2="63.5542" y2="96.5302">
		<stop  offset="0.1354" style="stop-color:#FFFFFF"/>
		<stop  offset="0.3305" style="stop-color:#C3C3C3"/>
		<stop  offset="0.7134" style="stop-color:#515151"/>
		<stop  offset="0.8833" style="stop-color:#242424"/>
	</linearGradient>
	<path fill="url(#SVGID_4_)" stroke="#FFFFFF" stroke-miterlimit="10" d="M89.878,42.367c0-2.899-1.218-5.566-6.378-5.566
		c-11.886,0-15.654,13.973-15.654,20.641c0,0.131,0.011,0.252,0.013,0.379c-1.059,1.912-2.686,3.215-4.42,3.215
		c-1.624,0-2.377-0.521-2.377-2.145c0-0.521,0.058-1.102,0.231-1.855l3.711-17.394h3.479l0.464-2.318h-3.479l1.971-9.161
		l-8.581,1.16l-1.739,8.001h-1.914l-0.464,2.318h1.914l-3.479,16.292c-0.87,2.898-2.958,5.102-5.219,5.102
		c-1.624,0-2.377-0.521-2.377-2.145c0-0.521,0.058-1.102,0.232-1.855l4.174-19.712h-8.349l-3.942,18.611
		c-0.29,1.391-0.464,2.668-0.464,3.77c0,4.869,2.725,6.957,6.204,6.957c2.372,0,6.239-0.74,9.413-5.203
		c0.586,3.619,3.041,5.203,6.069,5.203c2.39,0,6.298-0.756,9.485-5.312c1.199,3.721,4.278,5.312,8.431,5.312
		c4.638,0,8.813-1.971,10.03-8.58c-1.855,1.623-4.638,3.072-6.841,3.072c-2.029,0-3.595-1.16-3.595-4.812
		c0-0.521,0.058-1.16,0.116-1.74C83.5,54.193,89.878,49.092,89.878,42.367z M83.964,39.874c1.102,0,1.45,0.928,1.45,2.377
		c0,4.87-3.943,9.335-8.465,9.568C78.166,46.309,81.065,39.874,83.964,39.874z"/>
</g>
<g>
	<path fill="none" stroke="#FFFFFF" stroke-miterlimit="10" d="M251.647,73.734c0,0.811,1.044,1.912,2.319,1.912
		c1.217,0,2.667-1.102,3.421-4.521l0.695-3.422C254.431,68.922,251.647,70.604,251.647,73.734z"/>
	<path fill="none" stroke="#FFFFFF" stroke-miterlimit="10" d="M149.02,43.7c-0.117-2.435-0.696-3.362-2.204-3.362
		c-4.117,0-7.711,10.61-7.711,16.292c0,3.828,0.754,4.697,2.957,4.697c2.841,0,5.798-5.219,6.726-12.06
		c-1.217-0.289-1.565-1.275-1.565-2.436C147.222,45.208,147.976,44.165,149.02,43.7z"/>
	<path fill="none" stroke="#FFFFFF" stroke-miterlimit="10" d="M261.04,40.627c-4.928,0-8.116,10.435-8.116,15.886
		c0,4.465,1.854,4.521,2.898,4.521c1.565,0,4-1.391,4.639-4.348l2.957-14.031C263.302,41.903,262.78,40.627,261.04,40.627z"/>
	<linearGradient id="SVGID_5_" gradientUnits="userSpaceOnUse" x1="188.2437" y1="15.8628" x2="188.2437" y2="96.5302">
		<stop  offset="0.1354" style="stop-color:#FFFFFF"/>
		<stop  offset="0.3305" style="stop-color:#C3C3C3"/>
		<stop  offset="0.7134" style="stop-color:#515151"/>
		<stop  offset="0.8833" style="stop-color:#242424"/>
	</linearGradient>
	<path fill="url(#SVGID_5_)" stroke="#FFFFFF" stroke-miterlimit="10" d="M263.939,40.106c0-1.798-1.392-3.073-4.696-3.073
		c-10.089,0-14.9,12.466-14.9,20.292c0,0.094,0.008,0.176,0.01,0.266c-1.005,2.09-2.08,3.445-4.128,3.445
		c-1.739,0-2.319-0.984-2.319-2.434c0-3.248,2.784-10.263,2.784-14.959c0-4.638-2.726-6.552-6.437-6.552
		c-1.797,0-4.349,0.464-6.783,3.247l0.638-3.015h-8.35l-3.95,18.63c-0.872,2.889-2.954,5.082-5.211,5.082
		c-1.624,0-2.377-0.521-2.377-2.145c0-0.521,0.058-1.102,0.231-1.855l4.175-19.712h-8.349l-3.942,18.611h-0.003
		c-1.274,3.016-2.318,5.102-4.87,5.102c-1.739,0-2.319-0.984-2.319-2.434c0-3.248,2.783-10.263,2.783-14.959
		c0-4.638-2.725-6.552-6.435-6.552c-2.145,0-5.276,0.638-8.059,4.929c-0.639-3.595-2.899-4.986-5.972-4.986
		c-2.029,0-4.639,0.521-7.074,3.305l0.638-3.015h-8.35l-1.642,7.743c-1.617,0.673-3.262,1.127-4.621,1.127
		c-0.174,0-0.405,0-0.638-0.115c0-6.088-2.436-9.277-7.421-9.277c-11.753,0-15.755,13.47-15.88,20.252
		c-2.643,2.891-6.324,4.621-10.327,4.621c-5.566,0-6.958-3.711-6.958-9.045c0-11.828,5.682-27.077,12.06-27.077
		c2.609,0,3.537,1.682,3.537,3.536c0,2.204-1.276,4.639-2.667,5.335c1.102,1.275,2.377,1.507,3.305,1.507
		c2.957,0,4.059-2.261,4.059-5.334c0-5.623-4.233-7.77-9.683-7.77c-15.19,0-20.235,19.655-20.235,30.15
		c0,10.438,4.116,14.264,12.698,14.264c4.352,0,10.669-2.059,14.476-7.137c0.953,4.594,4.432,6.441,9.007,6.441
		c7.132,0,12.93-6.727,13.857-17.453c1.718-0.282,3.361-0.744,4.864-1.344l-3.935,18.564h8.349l3.942-18.612
		c0.87-2.899,2.436-5.393,4.697-5.393c1.275,0,1.74,1.276,1.74,2.552c0,0.521-0.059,0.985-0.175,1.449l-4.232,20.003h8.35
		l3.943-18.612c0.87-2.899,2.435-5.334,4.522-5.334c1.392,0,2.087,1.043,2.087,2.957c0,3.711-2.609,10.842-2.609,14.786
		c0,3.305,1.797,6.551,6.841,6.551c2.282,0,5.331-0.68,8.079-4.92c0.668,3.416,3.066,4.92,6.012,4.92
		c2.093,0,5.349-0.584,8.266-3.783l-0.729,3.436h8.351l3.942-18.612c0.87-2.899,2.435-5.334,4.522-5.334
		c1.392,0,2.087,1.043,2.087,2.957c0,3.711-2.609,10.842-2.609,14.786c0,3.305,1.798,6.551,6.842,6.551
		c2.317,0,5.424-0.697,8.204-5.111c1.219,3.699,4.108,5.111,7.104,5.111c3.015,0,5.275-1.449,6.957-3.246l-0.521,2.436
		c-5.509,1.623-10.03,3.305-10.03,8.695c0,3.77,3.305,6.262,6.841,6.262c3.827,0,8.814-1.564,10.554-9.855l7.072-33.628h-8.406
		L263.939,40.106z M148.787,49.266c-0.928,6.841-3.884,12.06-6.726,12.06c-2.203,0-2.957-0.869-2.957-4.697
		c0-5.682,3.595-16.292,7.711-16.292c1.508,0,2.087,0.928,2.204,3.362c-1.044,0.465-1.798,1.508-1.798,3.131
		C147.222,47.991,147.57,48.977,148.787,49.266z M257.388,71.125c-0.754,3.42-2.204,4.521-3.421,4.521
		c-1.275,0-2.319-1.102-2.319-1.912c0-3.131,2.783-4.812,6.436-6.031L257.388,71.125z M260.461,56.688
		c-0.639,2.957-3.073,4.348-4.639,4.348c-1.044,0-2.898-0.057-2.898-4.521c0-5.451,3.188-15.886,8.116-15.886
		c1.74,0,2.262,1.275,2.378,2.029L260.461,56.688z"/>
</g>
<linearGradient id="SVGID_6_" gradientUnits="userSpaceOnUse" x1="302.0625" y1="15.8628" x2="302.0625" y2="96.5302">
	<stop  offset="0.1354" style="stop-color:#FFFFFF"/>
	<stop  offset="0.3305" style="stop-color:#C3C3C3"/>
	<stop  offset="0.7134" style="stop-color:#515151"/>
	<stop  offset="0.8833" style="stop-color:#242424"/>
</linearGradient>
<path fill="url(#SVGID_6_)" stroke="#FFFFFF" stroke-miterlimit="10" d="M309.629,34.423c0.753,0.87,1.623,1.217,2.666,1.217
	c2.899,0,4.755-2.492,4.755-5.855c0-6.378-6.609-6.958-9.334-6.958c-7.479,0-13.394,4.349-13.394,10.379
	c0,8.523,11.886,12.061,11.886,21.974c0,4.871-2.841,7.713-6.727,7.713c-3.71,0-5.565-2.668-5.565-5.568
	c0-3.998,3.652-5.449,6.784-5.449c-0.175-3.015-3.073-3.827-5.103-3.827c-4.059,0-8.523,3.247-8.523,9.51
	c0,7.072,5.682,9.971,12.292,9.971c8.406,0,16.292-4.754,16.292-14.494c0-12.524-13.045-13.684-13.045-22.207
	c0-3.479,2.145-5.276,5.334-5.276c3.188,0,4.291,1.855,4.291,3.885C312.238,31.35,311.194,33.496,309.629,34.423z"/>
<g>
	<path fill="none" stroke="#FFFFFF" stroke-miterlimit="10" d="M361.755,43.7c-0.116-2.435-0.695-3.362-2.204-3.362
		c-4.116,0-7.711,10.61-7.711,16.292c0,3.828,0.754,4.697,2.957,4.697c2.841,0,5.798-5.219,6.726-12.06
		c-1.217-0.289-1.565-1.275-1.565-2.436C359.957,45.208,360.711,44.165,361.755,43.7z"/>
	<path fill="none" stroke="#FFFFFF" stroke-miterlimit="10" d="M336.301,43.7c-0.116-2.435-0.696-3.362-2.203-3.362
		c-4.117,0-7.712,10.61-7.712,16.292c0,3.828,0.754,4.697,2.957,4.697c2.842,0,5.798-5.219,6.726-12.06
		c-1.218-0.289-1.565-1.275-1.565-2.436C334.503,45.208,335.257,44.165,336.301,43.7z"/>
	<linearGradient id="SVGID_7_" gradientUnits="userSpaceOnUse" x1="356.7686" y1="15.8628" x2="356.7686" y2="96.5302">
		<stop  offset="0.1354" style="stop-color:#FFFFFF"/>
		<stop  offset="0.3305" style="stop-color:#C3C3C3"/>
		<stop  offset="0.7134" style="stop-color:#515151"/>
		<stop  offset="0.8833" style="stop-color:#242424"/>
	</linearGradient>
	<path fill="url(#SVGID_7_)" stroke="#FFFFFF" stroke-miterlimit="10" d="M391.558,58.602c0-3.248,2.783-10.263,2.783-14.959
		c0-4.638-2.726-6.552-6.436-6.552c-1.799,0-4.349,0.464-6.784,3.247l0.638-3.015h-8.35l-1.642,7.743
		c-1.616,0.673-3.262,1.127-4.621,1.127c-0.174,0-0.405,0-0.638-0.115c0-6.088-2.436-9.277-7.422-9.277
		c-6.163,0-10.191,3.708-12.651,8.211c-1.656,0.701-3.35,1.182-4.743,1.182c-0.174,0-0.406,0-0.638-0.115
		c0-6.088-2.435-9.277-7.422-9.277c-11.943,0-15.886,13.917-15.886,20.583c0,6.609,3.884,9.162,9.276,9.162
		c7.132,0,12.93-6.727,13.857-17.453c1.458-0.239,2.86-0.61,4.172-1.081c-1.304,3.401-1.852,6.889-1.852,9.372
		c0,6.609,3.884,9.162,9.277,9.162c7.132,0,12.929-6.727,13.856-17.453c1.718-0.282,3.361-0.744,4.864-1.344l-3.936,18.564h8.349
		l3.942-18.612c0.87-2.899,2.436-5.334,4.523-5.334c1.392,0,2.087,1.043,2.087,2.957c0,3.711-2.608,10.842-2.608,14.786
		c0,3.305,1.392,6.551,5.855,6.551c3.072,0,5.855-1.797,6.378-5.971c-0.348,0.23-0.928,0.346-1.913,0.346
		C392.138,61.035,391.558,60.051,391.558,58.602z M336.068,49.266c-0.928,6.841-3.884,12.06-6.726,12.06
		c-2.203,0-2.957-0.869-2.957-4.697c0-5.682,3.595-16.292,7.712-16.292c1.507,0,2.087,0.928,2.203,3.362
		c-1.044,0.465-1.798,1.508-1.798,3.131C334.503,47.991,334.851,48.977,336.068,49.266z M361.522,49.266
		c-0.928,6.841-3.885,12.06-6.726,12.06c-2.203,0-2.957-0.869-2.957-4.697c0-5.682,3.595-16.292,7.711-16.292
		c1.509,0,2.088,0.928,2.204,3.362c-1.044,0.465-1.798,1.508-1.798,3.131C359.957,47.991,360.306,48.977,361.522,49.266z"/>
</g>
</svg>
