<?xml version="1.0" encoding="utf-8"?>
<!-- Generator: Adobe Illustrator 16.0.4, SVG Export Plug-In . SVG Version: 6.00 Build 0)  -->
<!DOCTYPE svg PUBLIC "-//W3C//DTD SVG 1.1//EN" "http://www.w3.org/Graphics/SVG/1.1/DTD/svg11.dtd">
<svg version="1.1" id="Layer_1" xmlns="http://www.w3.org/2000/svg" xmlns:xlink="http://www.w3.org/1999/xlink" x="0px" y="0px"
	 width="183.333px" height="50px" viewBox="0 0 183.333 50" enable-background="new 0 0 183.333 50" xml:space="preserve">
<rect width="16.667" height="16.667"/>
<rect x="16.667" fill="#FFFFFF" width="16.667" height="16.667"/>
<rect x="33.333" width="16.667" height="16.667"/>
<rect x="50" fill="#FFFFFF" width="16.667" height="16.667"/>
<rect x="66.666" width="16.666" height="16.667"/>
<rect x="83.332" fill="#FFFFFF" width="16.667" height="16.667"/>
<rect x="99.998" width="16.666" height="16.667"/>
<rect x="116.664" fill="#FFFFFF" width="16.668" height="16.667"/>
<rect x="133.332" width="16.667" height="16.667"/>
<rect x="149.999" fill="#FFFFFF" width="16.667" height="16.667"/>
<rect x="166.666" width="16.667" height="16.667"/>
<rect y="16.667" fill="#FFFFFF" width="16.667" height="16.667"/>
<rect x="16.667" y="16.667" width="16.667" height="16.667"/>
<rect x="33.333" y="16.667" fill="#FFFFFF" width="16.667" height="16.667"/>
<rect x="50" y="16.667" width="16.667" height="16.667"/>
<rect x="66.666" y="16.667" fill="#FFFFFF" width="16.666" height="16.667"/>
<rect x="83.332" y="16.667" width="16.667" height="16.667"/>
<rect x="99.998" y="16.667" fill="#FFFFFF" width="16.666" height="16.667"/>
<rect x="116.664" y="16.667" width="16.668" height="16.667"/>
<rect x="133.332" y="16.667" fill="#FFFFFF" width="16.667" height="16.667"/>
<rect x="149.999" y="16.667" width="16.667" height="16.667"/>
<rect x="166.666" y="16.667" fill="#FFFFFF" width="16.667" height="16.667"/>
<rect y="33.333" width="16.667" height="16.667"/>
<rect x="16.667" y="33.333" fill="#FFFFFF" width="16.667" height="16.667"/>
<rect x="33.333" y="33.333" width="16.667" height="16.667"/>
<rect x="50" y="33.333" fill="#FFFFFF" width="16.667" height="16.667"/>
<rect x="66.666" y="33.333" width="16.666" height="16.667"/>
<rect x="83.332" y="33.333" fill="#FFFFFF" width="16.667" height="16.667"/>
<rect x="99.998" y="33.333" width="16.666" height="16.667"/>
<rect x="116.664" y="33.333" fill="#FFFFFF" width="16.668" height="16.667"/>
<rect x="133.332" y="33.333" width="16.667" height="16.667"/>
<rect x="149.999" y="33.333" fill="#FFFFFF" width="16.667" height="16.667"/>
<rect x="166.666" y="33.333" width="16.667" height="16.667"/>
</svg>
