<?xml version="1.0" encoding="utf-8"?>
<!-- Generator: Adobe Illustrator 16.0.4, SVG Export Plug-In . SVG Version: 6.00 Build 0)  -->
<!DOCTYPE svg PUBLIC "-//W3C//DTD SVG 1.1//EN" "http://www.w3.org/Graphics/SVG/1.1/DTD/svg11.dtd">
<svg version="1.1" id="Layer_1" xmlns="http://www.w3.org/2000/svg" xmlns:xlink="http://www.w3.org/1999/xlink" x="0px" y="0px"
	viewBox="0 43.167 100 14.667" enable-background="new 0 43.167 100 14.667" xml:space="preserve"
	>
<g>
	<g>
		<path fill="none" stroke="#FFFFFF" stroke-width="0.1147" stroke-miterlimit="10" d="M4.604,48.983
			c-0.731,0-1.204,1.548-1.204,2.355c0,0.664,0.274,0.671,0.429,0.671c0.25,0,0.611-0.257,0.714-0.755l0.413-1.944
			C4.957,49.207,4.88,48.983,4.604,48.983z"/>
		<linearGradient id="SVGID_1_" gradientUnits="userSpaceOnUse" x1="5.6323" y1="45.3823" x2="5.6323" y2="56.1429">
			<stop  offset="0.1354" style="stop-color:#FFFFFF"/>
			<stop  offset="0.3305" style="stop-color:#C3C3C3"/>
			<stop  offset="0.7134" style="stop-color:#515151"/>
			<stop  offset="0.8833" style="stop-color:#242424"/>
		</linearGradient>
		<path fill="url(#SVGID_1_)" stroke="#FFFFFF" stroke-width="0.1147" stroke-miterlimit="10" d="M8.913,47.134L7.64,47.306
			l-0.258,1.187H7.098l-0.069,0.344h0.284l-0.516,2.417H6.763c-0.129,0.429-0.362,0.808-0.697,0.808
			c-0.24,0-0.352-0.129-0.352-0.369c0-0.077,0.009-0.164,0.035-0.275l0.619-2.924H5.129l-0.094,0.456v-0.061
			c0-0.25-0.207-0.438-0.697-0.438c-1.496,0-2.21,1.849-2.21,3.01c0,1.023,0.559,1.384,1.144,1.384c0.61,0,1.015-0.396,1.282-0.792
			c0.051,0.517,0.361,0.792,0.843,0.792c0.35,0,0.879-0.109,1.328-0.769c0.059,0.448,0.322,0.769,0.847,0.769
			c0.292,0,0.672-0.103,0.912-0.842c-0.069,0.024-0.164,0.024-0.224,0.024c-0.231,0-0.3-0.128-0.3-0.309
			c0-0.095,0.017-0.198,0.042-0.301l0.55-2.581h0.517l0.068-0.344H8.62C8.784,47.719,8.913,47.134,8.913,47.134z M4.544,51.254
			c-0.103,0.498-0.464,0.755-0.714,0.755c-0.155,0-0.429-0.007-0.429-0.671c0-0.807,0.473-2.355,1.204-2.355
			c0.275,0,0.353,0.224,0.353,0.327L4.544,51.254z"/>
	</g>
	<linearGradient id="SVGID_2_" gradientUnits="userSpaceOnUse" x1="13.5391" y1="45.3828" x2="13.5391" y2="56.1416">
		<stop  offset="0.1354" style="stop-color:#FFFFFF"/>
		<stop  offset="0.3305" style="stop-color:#C3C3C3"/>
		<stop  offset="0.7134" style="stop-color:#515151"/>
		<stop  offset="0.8833" style="stop-color:#242424"/>
	</linearGradient>
	<path fill="url(#SVGID_2_)" stroke="#FFFFFF" stroke-width="0.1147" stroke-miterlimit="10" d="M16.024,47.719
		c0-0.706-0.593-1.375-1.952-1.375c-1.436,0-3.018,1.092-3.018,2.235c0,0.619,0.327,0.834,0.92,0.834
		c-0.009-0.078-0.12-0.147-0.12-0.585c0-1.307,0.928-2.089,2.321-2.089c0.67,0,0.946,0.421,0.946,0.903
		c0,0.653-0.508,1.496-1.221,1.496h-0.069l0.422-1.987l-1.273,0.172l-1.17,5.468h1.238l0.688-3.241
		c0.112-0.017,0.207-0.034,0.284-0.034c0.387,0,0.516,0.241,0.516,0.584c0,0.653-0.456,1.693-0.456,2.262
		c0,0.284,0.112,0.575,0.671,0.575c0.207,0,0.49-0.041,0.852-0.146c-0.207-0.076-0.336-0.308-0.336-0.567
		c0-0.541,0.422-1.47,0.422-2.175c0-0.403-0.138-0.73-0.593-0.86C15.688,48.836,16.024,48.243,16.024,47.719z"/>
	<g>
		<path fill="none" stroke="#FFFFFF" stroke-width="0.1147" stroke-miterlimit="10" d="M22.311,48.983
			c-0.731,0-1.205,1.548-1.205,2.355c0,0.664,0.275,0.671,0.43,0.671c0.241,0,0.593-0.239,0.705-0.714v-0.041l0.421-1.97
			C22.646,49.181,22.568,48.983,22.311,48.983z"/>
		<path fill="none" stroke="#FFFFFF" stroke-width="0.1147" stroke-miterlimit="10" d="M18.802,49.438
			c-0.018-0.361-0.104-0.499-0.327-0.499c-0.61,0-1.144,1.573-1.144,2.417c0,0.568,0.112,0.695,0.439,0.695
			c0.42,0,0.86-0.773,0.997-1.788c-0.181-0.043-0.232-0.189-0.232-0.361C18.535,49.662,18.647,49.507,18.802,49.438z"/>
		<path fill="none" stroke="#FFFFFF" stroke-width="0.1147" stroke-miterlimit="10" d="M33.292,48.983
			c-0.731,0-1.204,1.548-1.204,2.355c0,0.664,0.275,0.671,0.43,0.671c0.249,0,0.61-0.257,0.713-0.755l0.414-1.944
			C33.645,49.207,33.567,48.983,33.292,48.983z"/>
		<linearGradient id="SVGID_3_" gradientUnits="userSpaceOnUse" x1="27.7017" y1="45.3818" x2="27.7017" y2="56.1434">
			<stop  offset="0.1354" style="stop-color:#FFFFFF"/>
			<stop  offset="0.3305" style="stop-color:#C3C3C3"/>
			<stop  offset="0.7134" style="stop-color:#515151"/>
			<stop  offset="0.8833" style="stop-color:#242424"/>
		</linearGradient>
		<path fill="url(#SVGID_3_)" stroke="#FFFFFF" stroke-width="0.1147" stroke-miterlimit="10" d="M38.726,51.648
			c0-0.481,0.413-1.522,0.413-2.219c0-0.688-0.403-0.972-0.955-0.972c-0.266,0-0.645,0.069-1.006,0.481l0.095-0.447h-1.238
			l-0.586,2.764c-0.129,0.428-0.361,0.805-0.696,0.805c-0.24,0-0.352-0.129-0.352-0.369c0-0.077,0.009-0.164,0.034-0.275
			l0.619-2.924h-1.238l-0.095,0.456v-0.061c0-0.25-0.206-0.438-0.696-0.438c-1.496,0-2.21,1.849-2.21,3.01
			c0,0.015,0.001,0.026,0.001,0.041c-0.149,0.31-0.309,0.508-0.612,0.508c-0.258,0-0.344-0.145-0.344-0.36
			c0-0.481,0.413-1.522,0.413-2.219c0-0.688-0.405-0.972-0.956-0.972c-0.318,0-0.782,0.095-1.195,0.731
			c-0.095-0.532-0.43-0.739-0.885-0.739c-0.301,0-0.688,0.077-1.049,0.489l0.095-0.447h-1.238l-0.586,2.763
			c-0.13,0.429-0.361,0.753-0.695,0.753c-0.241,0-0.353-0.076-0.353-0.316c0-0.077,0.008-0.164,0.034-0.275l0.989-4.645
			l-1.273,0.172l-0.42,1.978v-0.034c0-0.25-0.207-0.438-0.697-0.438c-0.793,0-1.366,0.519-1.729,1.178
			c-0.25,0.106-0.504,0.18-0.713,0.18c-0.026,0-0.061,0-0.095-0.017c0-0.903-0.361-1.376-1.1-1.376
			c-1.771,0-2.356,2.064-2.356,3.053c0,0.98,0.576,1.358,1.375,1.358c1.058,0,1.918-0.997,2.056-2.588
			c0.219-0.036,0.43-0.092,0.626-0.163c-0.184,0.473-0.273,0.972-0.273,1.385c0,1.023,0.559,1.384,1.144,1.384
			c0.61,0,1.015-0.396,1.273-0.792c0.068,0.481,0.378,0.739,0.842,0.739c0.304,0,0.742-0.058,1.146-0.494l-0.105,0.494h1.238
			l0.585-2.759c0.129-0.43,0.361-0.799,0.697-0.799c0.189,0,0.257,0.189,0.257,0.378c0,0.078-0.009,0.146-0.026,0.214l-0.627,2.966
			h1.238l0.585-2.759c0.129-0.43,0.361-0.791,0.671-0.791c0.206,0,0.309,0.155,0.309,0.439c0,0.549-0.386,1.608-0.386,2.192
			c0,0.49,0.267,0.972,1.015,0.972c0.343,0,0.804-0.103,1.217-0.758c0.181,0.549,0.609,0.758,1.053,0.758
			c0.61,0,1.015-0.396,1.281-0.792c0.052,0.517,0.361,0.792,0.843,0.792c0.304,0,0.739-0.082,1.142-0.527l-0.102,0.475h1.238
			l0.585-2.759c0.129-0.43,0.362-0.791,0.671-0.791c0.207,0,0.309,0.155,0.309,0.439c0,0.549-0.387,1.608-0.387,2.192
			c0,0.49,0.207,0.972,0.869,0.972c0.456,0,0.869-0.267,0.946-0.886c-0.051,0.034-0.138,0.051-0.284,0.051
			C38.812,52.009,38.726,51.864,38.726,51.648z M18.767,50.264c-0.137,1.014-0.577,1.788-0.997,1.788
			c-0.327,0-0.439-0.127-0.439-0.695c0-0.844,0.534-2.417,1.144-2.417c0.224,0,0.31,0.138,0.327,0.499
			c-0.155,0.069-0.267,0.224-0.267,0.464C18.535,50.075,18.586,50.221,18.767,50.264z M22.241,51.254v0.041
			c-0.112,0.475-0.464,0.714-0.705,0.714c-0.155,0-0.43-0.007-0.43-0.671c0-0.807,0.473-2.355,1.205-2.355
			c0.258,0,0.335,0.198,0.352,0.301L22.241,51.254z M33.231,51.254c-0.103,0.498-0.464,0.755-0.713,0.755
			c-0.155,0-0.43-0.007-0.43-0.671c0-0.807,0.473-2.355,1.204-2.355c0.275,0,0.353,0.224,0.353,0.327L33.231,51.254z"/>
	</g>
	<g>
		<path fill="none" stroke="#FFFFFF" stroke-width="0.1147" stroke-miterlimit="10" d="M58.049,49.438
			c-0.017-0.361-0.104-0.499-0.327-0.499c-0.61,0-1.144,1.573-1.144,2.417c0,0.568,0.112,0.695,0.439,0.695
			c0.421,0,0.859-0.773,0.997-1.788c-0.181-0.043-0.231-0.189-0.231-0.361C57.783,49.662,57.893,49.507,58.049,49.438z"/>
		<path fill="none" stroke="#FFFFFF" stroke-width="0.1147" stroke-miterlimit="10" d="M50.43,50.951
			c0.111,0.052,0.197,0.156,0.197,0.303c0,0.206-0.154,0.42-0.378,0.42c-0.066,0-0.143-0.016-0.194-0.062
			c-0.011,0.023-0.021,0.045-0.031,0.067c0.027,0.325,0.179,0.485,0.518,0.485c0.379,0,0.748-0.197,0.748-0.8
			c0-0.447-0.077-0.712-0.163-2.038C50.955,49.886,50.713,50.401,50.43,50.951z"/>
		<path fill="none" stroke="#FFFFFF" stroke-width="0.1147" stroke-miterlimit="10" d="M66.252,50.951
			c0.113,0.052,0.198,0.156,0.198,0.303c0,0.206-0.155,0.42-0.378,0.42c-0.066,0-0.14-0.014-0.191-0.058
			c-0.012,0.026-0.023,0.052-0.034,0.077c0.03,0.315,0.184,0.471,0.519,0.471c0.377,0,0.746-0.197,0.746-0.8
			c0-0.447-0.076-0.712-0.162-2.038C66.776,49.886,66.537,50.401,66.252,50.951z"/>
		<linearGradient id="SVGID_4_" gradientUnits="userSpaceOnUse" x1="54.8711" y1="45.3828" x2="54.8711" y2="56.1429">
			<stop  offset="0.1354" style="stop-color:#FFFFFF"/>
			<stop  offset="0.3305" style="stop-color:#C3C3C3"/>
			<stop  offset="0.7134" style="stop-color:#515151"/>
			<stop  offset="0.8833" style="stop-color:#242424"/>
		</linearGradient>
		<path fill="url(#SVGID_4_)" stroke="#FFFFFF" stroke-width="0.1147" stroke-miterlimit="10" d="M66.896,48.398
			c-0.267,0.843-0.575,1.694-1.058,2.545c-0.231,0.112-0.455,0.404-0.455,0.799c0,0.011,0.001,0.022,0.002,0.034
			c-0.112,0.147-0.25,0.232-0.448,0.232c-0.26,0-0.344-0.145-0.344-0.36c0-0.481,0.412-1.522,0.412-2.219
			c0-0.688-0.404-0.972-0.955-0.972c-0.318,0-0.783,0.095-1.195,0.731c-0.095-0.532-0.429-0.739-0.886-0.739
			c-0.301,0-0.688,0.077-1.048,0.489l0.094-0.447h-1.239l-0.243,1.149c-0.239,0.099-0.483,0.167-0.684,0.167
			c-0.026,0-0.061,0-0.096-0.017c0-0.903-0.362-1.376-1.101-1.376c-1.771,0-2.356,2.064-2.356,3.053
			c0,0.022,0.002,0.043,0.002,0.066c-0.156,0.283-0.398,0.475-0.656,0.475c-0.24,0-0.351-0.076-0.351-0.316
			c0-0.077,0.007-0.164,0.033-0.275l0.551-2.581h0.516l0.069-0.344h-0.517l0.292-1.358l-1.273,0.172l-0.257,1.187h-0.284
			l-0.068,0.344h0.284l-0.516,2.417c-0.165,0.137-0.388,0.291-0.621,0.429c0.027-0.103,0.034-0.205,0.034-0.326
			c0-0.567-0.085-0.903-0.187-3.131l-1.274,0.172c-0.266,0.843-0.576,1.694-1.057,2.545c-0.232,0.112-0.457,0.404-0.457,0.799
			c0,0.019,0.002,0.034,0.003,0.052c-0.115,0.135-0.257,0.215-0.424,0.215c-0.241,0-0.353-0.076-0.353-0.316
			c0-0.077,0.009-0.164,0.035-0.275l0.619-2.924h-1.239l-0.584,2.761c-0.129,0.429-0.353,0.755-0.688,0.755
			c-0.189,0-0.258-0.154-0.258-0.352c0-0.077,0.009-0.154,0.026-0.24l0.619-2.924h-1.238l-0.585,2.761
			c-0.002,0.01-0.004,0.021-0.006,0.03c-0.396,0.51-0.992,0.82-1.645,0.82c-0.825,0-1.033-0.549-1.033-1.341
			c0-1.755,0.844-4.017,1.79-4.017c0.387,0,0.524,0.25,0.524,0.524c0,0.328-0.189,0.689-0.396,0.792
			c0.163,0.189,0.353,0.223,0.49,0.223c0.438,0,0.602-0.335,0.602-0.791c0-0.834-0.628-1.152-1.436-1.152
			c-2.252,0-3.001,2.915-3.001,4.471c0,1.548,0.611,2.115,1.883,2.115c0.651,0,1.597-0.311,2.16-1.077
			c0.016,0.692,0.413,0.991,0.918,0.991c0.361,0,0.843-0.112,1.273-0.817c0.051,0.532,0.36,0.817,0.851,0.817
			c0.321,0,0.789-0.09,1.209-0.607c0.172,0.338,0.538,0.607,1.138,0.607c0.438,0,0.99-0.138,1.35-0.516
			c0.272-0.16,0.58-0.366,0.892-0.645c-0.003,0.045-0.005,0.088-0.005,0.129c0,0.721,0.404,1.031,0.92,1.031
			c0.355,0,0.938-0.112,1.412-0.795c0.189,0.552,0.672,0.777,1.288,0.777c1.059,0,1.917-0.997,2.055-2.588
			c0.255-0.042,0.499-0.11,0.722-0.2l-0.583,2.752h1.238l0.585-2.759c0.127-0.43,0.359-0.799,0.695-0.799
			c0.189,0,0.258,0.189,0.258,0.378c0,0.078-0.008,0.146-0.025,0.214l-0.628,2.966h1.238l0.584-2.759
			c0.131-0.43,0.363-0.791,0.672-0.791c0.206,0,0.31,0.155,0.31,0.439c0,0.549-0.387,1.608-0.387,2.192
			c0,0.49,0.266,0.972,1.014,0.972c0.311,0,0.716-0.085,1.096-0.582c0.177,0.327,0.54,0.582,1.124,0.582
			c0.704,0,1.719-0.369,1.719-1.487c0-0.567-0.084-0.903-0.188-3.131L66.896,48.398z M50.541,52.164c-0.339,0-0.49-0.16-0.518-0.485
			c0.01-0.022,0.021-0.044,0.031-0.067c0.052,0.047,0.128,0.062,0.194,0.062c0.224,0,0.378-0.214,0.378-0.42
			c0-0.146-0.086-0.251-0.197-0.303c0.283-0.55,0.525-1.065,0.696-1.625c0.086,1.326,0.163,1.59,0.163,2.038
			C51.289,51.967,50.92,52.164,50.541,52.164z M58.015,50.264c-0.138,1.014-0.576,1.788-0.997,1.788
			c-0.327,0-0.439-0.127-0.439-0.695c0-0.844,0.533-2.417,1.144-2.417c0.223,0,0.311,0.138,0.327,0.499
			c-0.156,0.069-0.266,0.224-0.266,0.464C57.783,50.075,57.834,50.221,58.015,50.264z M66.365,52.164
			c-0.335,0-0.488-0.155-0.519-0.471c0.011-0.025,0.022-0.051,0.034-0.077c0.052,0.044,0.125,0.058,0.191,0.058
			c0.223,0,0.378-0.214,0.378-0.42c0-0.146-0.085-0.251-0.198-0.303c0.285-0.55,0.524-1.065,0.697-1.625
			c0.086,1.326,0.162,1.59,0.162,2.038C67.111,51.967,66.742,52.164,66.365,52.164z"/>
	</g>
	<linearGradient id="SVGID_5_" gradientUnits="userSpaceOnUse" x1="72.9863" y1="45.3828" x2="72.9863" y2="56.1427">
		<stop  offset="0.1354" style="stop-color:#FFFFFF"/>
		<stop  offset="0.3305" style="stop-color:#C3C3C3"/>
		<stop  offset="0.7134" style="stop-color:#515151"/>
		<stop  offset="0.8833" style="stop-color:#242424"/>
	</linearGradient>
	<path fill="url(#SVGID_5_)" stroke="#FFFFFF" stroke-width="0.1147" stroke-miterlimit="10" d="M75.256,48.321
		c-0.361,0-0.534,0.197-0.534,0.464c0,0.189,0.105,0.438,0.31,0.438c0.069,0,0.25-0.026,0.276-0.086
		c0,0.946-0.646,2.871-1.488,2.871c-0.206,0-0.292-0.11-0.292-0.283c0-0.077,0.019-0.189,0.043-0.309l0.619-2.924h-1.238
		l-0.585,2.761c-0.129,0.429-0.352,0.755-0.688,0.755c-0.198,0-0.259-0.18-0.259-0.378c0-0.068,0.009-0.146,0.026-0.214l0.619-2.924
		h-1.238l-0.585,2.761c-0.043,0.206-0.068,0.395-0.068,0.559c0,0.721,0.404,1.031,0.92,1.031c0.345,0,0.8-0.103,1.222-0.723
		c0.103,0.481,0.473,0.723,1.032,0.723c1.753,0,2.451-2.4,2.451-3.775C75.799,48.691,75.668,48.321,75.256,48.321z"/>
	<g>
		<path fill="none" stroke="#FFFFFF" stroke-width="0.1147" stroke-miterlimit="10" d="M78.413,49.224
			c0-0.215-0.053-0.353-0.216-0.353c-0.432,0-0.86,0.954-1.041,1.771C77.828,50.608,78.413,49.946,78.413,49.224z"/>
		<linearGradient id="SVGID_6_" gradientUnits="userSpaceOnUse" x1="77.4395" y1="45.3818" x2="77.4395" y2="56.1435">
			<stop  offset="0.1354" style="stop-color:#FFFFFF"/>
			<stop  offset="0.3305" style="stop-color:#C3C3C3"/>
			<stop  offset="0.7134" style="stop-color:#515151"/>
			<stop  offset="0.8833" style="stop-color:#242424"/>
		</linearGradient>
		<path fill="url(#SVGID_6_)" stroke="#FFFFFF" stroke-width="0.1147" stroke-miterlimit="10" d="M79.073,49.241
			c0-0.43-0.18-0.826-0.944-0.826c-1.763,0-2.323,2.072-2.323,3.062c0,0.971,0.533,1.366,1.333,1.366
			c0.689,0,1.308-0.292,1.488-1.273c-0.274,0.242-0.688,0.456-1.015,0.456c-0.302,0-0.532-0.172-0.532-0.713
			c0-0.078,0.007-0.174,0.016-0.258C78.129,50.994,79.073,50.238,79.073,49.241z M78.197,48.871c0.163,0,0.216,0.137,0.216,0.353
			c0,0.723-0.585,1.385-1.257,1.419C77.337,49.825,77.766,48.871,78.197,48.871z"/>
	</g>
	<g>
		<path fill="none" stroke="#FFFFFF" stroke-width="0.1147" stroke-miterlimit="10" d="M83.305,48.983
			c-0.73,0-1.204,1.548-1.204,2.355c0,0.664,0.275,0.671,0.431,0.671c0.248,0,0.61-0.257,0.714-0.755l0.413-1.944
			C83.658,49.207,83.58,48.983,83.305,48.983z"/>
		<linearGradient id="SVGID_7_" gradientUnits="userSpaceOnUse" x1="84.8184" y1="45.3828" x2="84.8184" y2="56.1429">
			<stop  offset="0.1354" style="stop-color:#FFFFFF"/>
			<stop  offset="0.3305" style="stop-color:#C3C3C3"/>
			<stop  offset="0.7134" style="stop-color:#515151"/>
			<stop  offset="0.8833" style="stop-color:#242424"/>
		</linearGradient>
		<path fill="url(#SVGID_7_)" stroke="#FFFFFF" stroke-width="0.1147" stroke-miterlimit="10" d="M88.215,48.493
			c-0.413,0-0.739,0.275-1.041,0.533l0.112-0.533h-1.238l-0.586,2.764c-0.129,0.428-0.361,0.805-0.695,0.805
			c-0.241,0-0.353-0.129-0.353-0.369c0-0.077,0.01-0.164,0.035-0.275l0.618-2.924h-1.238l-0.095,0.456v-0.061
			c0-0.25-0.207-0.438-0.697-0.438c-1.495,0-2.209,1.849-2.209,3.01c0,1.023,0.56,1.384,1.144,1.384
			c0.611,0,1.015-0.396,1.282-0.792c0.051,0.517,0.36,0.792,0.842,0.792c0.303,0,0.738-0.082,1.143-0.527l-0.103,0.475h1.238
			l0.688-3.267c0.215-0.198,0.37-0.327,0.627-0.327c0.259,0,0.019,0.567,0.5,0.567c0.422,0,0.618-0.327,0.618-0.627
			C88.808,48.811,88.602,48.493,88.215,48.493z M83.245,51.254c-0.104,0.498-0.466,0.755-0.714,0.755
			c-0.155,0-0.431-0.007-0.431-0.671c0-0.807,0.474-2.355,1.204-2.355c0.275,0,0.354,0.224,0.354,0.327L83.245,51.254z"/>
	</g>
	<g>
		<path fill="none" stroke="#FFFFFF" stroke-width="0.1147" stroke-miterlimit="10" d="M91.182,49.224
			c0-0.215-0.053-0.353-0.215-0.353c-0.431,0-0.86,0.954-1.041,1.771C90.598,50.608,91.182,49.946,91.182,49.224z"/>
		<linearGradient id="SVGID_8_" gradientUnits="userSpaceOnUse" x1="90.21" y1="45.3818" x2="90.21" y2="56.1435">
			<stop  offset="0.1354" style="stop-color:#FFFFFF"/>
			<stop  offset="0.3305" style="stop-color:#C3C3C3"/>
			<stop  offset="0.7134" style="stop-color:#515151"/>
			<stop  offset="0.8833" style="stop-color:#242424"/>
		</linearGradient>
		<path fill="url(#SVGID_8_)" stroke="#FFFFFF" stroke-width="0.1147" stroke-miterlimit="10" d="M91.843,49.241
			c0-0.43-0.181-0.826-0.945-0.826c-1.763,0-2.32,2.072-2.32,3.062c0,0.971,0.531,1.366,1.332,1.366
			c0.688,0,1.307-0.292,1.487-1.273c-0.274,0.242-0.688,0.456-1.016,0.456c-0.301,0-0.532-0.172-0.532-0.713
			c0-0.078,0.009-0.174,0.018-0.258C90.897,50.994,91.843,50.238,91.843,49.241z M90.967,48.871c0.162,0,0.215,0.137,0.215,0.353
			c0,0.723-0.584,1.385-1.256,1.419C90.106,49.825,90.536,48.871,90.967,48.871z"/>
	</g>
	<linearGradient id="SVGID_9_" gradientUnits="userSpaceOnUse" x1="92.7939" y1="45.3882" x2="92.7939" y2="56.1399">
		<stop  offset="0.1354" style="stop-color:#FFFFFF"/>
		<stop  offset="0.3305" style="stop-color:#C3C3C3"/>
		<stop  offset="0.7134" style="stop-color:#515151"/>
		<stop  offset="0.8833" style="stop-color:#242424"/>
	</linearGradient>
	<path fill="url(#SVGID_9_)" stroke="#FFFFFF" stroke-width="0.1147" stroke-miterlimit="10" d="M92.79,51.46
		c-0.38,0-0.68,0.31-0.68,0.688c0,0.379,0.3,0.679,0.68,0.679c0.378,0,0.688-0.3,0.688-0.679C93.478,51.77,93.168,51.46,92.79,51.46
		z"/>
	<linearGradient id="SVGID_10_" gradientUnits="userSpaceOnUse" x1="95.0557" y1="45.3882" x2="95.0557" y2="56.1399">
		<stop  offset="0.1354" style="stop-color:#FFFFFF"/>
		<stop  offset="0.3305" style="stop-color:#C3C3C3"/>
		<stop  offset="0.7134" style="stop-color:#515151"/>
		<stop  offset="0.8833" style="stop-color:#242424"/>
	</linearGradient>
	<path fill="url(#SVGID_10_)" stroke="#FFFFFF" stroke-width="0.1147" stroke-miterlimit="10" d="M95.052,51.46
		c-0.378,0-0.68,0.31-0.68,0.688c0,0.379,0.302,0.679,0.68,0.679s0.688-0.3,0.688-0.679C95.739,51.77,95.43,51.46,95.052,51.46z"/>
	<linearGradient id="SVGID_11_" gradientUnits="userSpaceOnUse" x1="97.3164" y1="45.3882" x2="97.3164" y2="56.1399">
		<stop  offset="0.1354" style="stop-color:#FFFFFF"/>
		<stop  offset="0.3305" style="stop-color:#C3C3C3"/>
		<stop  offset="0.7134" style="stop-color:#515151"/>
		<stop  offset="0.8833" style="stop-color:#242424"/>
	</linearGradient>
	<path fill="url(#SVGID_11_)" stroke="#FFFFFF" stroke-width="0.1147" stroke-miterlimit="10" d="M97.312,51.46
		c-0.379,0-0.679,0.31-0.679,0.688c0,0.379,0.3,0.679,0.679,0.679c0.378,0,0.688-0.3,0.688-0.679C98,51.77,97.69,51.46,97.312,51.46
		z"/>
</g>
</svg>
