<?xml version="1.0" encoding="utf-8"?>
<!-- Generator: Adobe Illustrator 16.0.4, SVG Export Plug-In . SVG Version: 6.00 Build 0)  -->
<!DOCTYPE svg PUBLIC "-//W3C//DTD SVG 1.1//EN" "http://www.w3.org/Graphics/SVG/1.1/DTD/svg11.dtd">
<svg version="1.1" id="Layer_1" xmlns="http://www.w3.org/2000/svg" xmlns:xlink="http://www.w3.org/1999/xlink" x="0px" y="0px"
	 viewBox="0 0 220 70" enable-background="new 0 0 220 70" xml:space="preserve">
<g>
	<polygon points="111.12,0 43.223,70 73.233,70 141.128,0 	"/>
	<polygon points="150.881,0 82.984,70 112.992,70 180.888,0 	"/>
	<polygon points="71.359,0 3.464,70 33.472,70 101.368,0 	"/>
	<polygon points="31.6,0 0,32.579 0,63.518 61.608,0 	"/>
	<polygon points="220,0 190.641,0 122.744,70 152.752,70 220,0.667 	"/>
	<polygon points="220,10.722 162.504,70 192.512,70 220,41.66 	"/>
	<polygon points="220,51.714 202.264,70 220,70 	"/>
	<polygon points="0,0 0,22.525 21.848,0 	"/>
	<polygon fill="#FFD700" points="21.848,0 0,22.525 0,32.579 31.6,0 	"/>
	<polygon fill="#FFD700" points="61.608,0 0,63.518 0,70 3.464,70 71.359,0 	"/>
	<polygon fill="#FFD700" points="101.368,0 33.472,70 43.223,70 111.12,0 	"/>
	<polygon fill="#FFD700" points="141.128,0 73.233,70 82.984,70 150.881,0 	"/>
	<polyline fill="#FFD700" points="122.744,70 190.641,0 180.888,0 112.992,70 	"/>
	<polygon fill="#FFD700" points="220,0.667 152.752,70 162.504,70 220,10.722 	"/>
	<polygon fill="#FFD700" points="220,41.66 192.512,70 202.264,70 220,51.714 	"/>
</g>
</svg>
