<?xml version="1.0" encoding="utf-8"?>
<!-- Generator: Adobe Illustrator 16.0.4, SVG Export Plug-In . SVG Version: 6.00 Build 0)  -->
<!DOCTYPE svg PUBLIC "-//W3C//DTD SVG 1.1//EN" "http://www.w3.org/Graphics/SVG/1.1/DTD/svg11.dtd">
<svg version="1.1" id="Layer_1" xmlns="http://www.w3.org/2000/svg" xmlns:xlink="http://www.w3.org/1999/xlink" x="0px" y="0px"
	 viewBox="0 0 400 100" enable-background="new 0 0 400 100" xml:space="preserve">
<g>
	<linearGradient id="SVGID_1_" gradientUnits="userSpaceOnUse" x1="31.335" y1="8.8115" x2="31.335" y2="112.2869">
		<stop  offset="0.1354" style="stop-color:#FFFFFF"/>
		<stop  offset="0.3305" style="stop-color:#C3C3C3"/>
		<stop  offset="0.7134" style="stop-color:#515151"/>
		<stop  offset="0.8833" style="stop-color:#242424"/>
	</linearGradient>
	<path fill="url(#SVGID_1_)" stroke="#FFFFFF" stroke-miterlimit="10" d="M49.072,25.902c0-7.274-3.975-12.074-14.249-12.074
		c-11.325,0-15.45,5.925-15.45,11.024c0,4.35,2.325,6.75,5.4,6.75c1.8,0,3.75-0.825,5.7-2.55c-2.1-0.601-2.85-3.375-2.85-5.101
		c0-3.749,1.05-6.074,6.075-6.074c2.175,0,4.575,2.475,4.575,6.149c0,19.949-24.674,27.299-24.674,43.724c0,0.825,0,1.65,0.15,2.475
		c1.5-0.524,4.2-2.1,5.925-2.1c7.649,0,10.424,2.7,18.599,2.7c7.425,0,8.924-3.9,8.924-11.25c0-1.05,0-2.1-0.075-3.3
		c-3.525,3.3-4.8,5.175-10.05,5.175c-5.625,0-9.899-1.35-14.324-1.35h-0.375C28.598,49.977,49.072,42.627,49.072,25.902z"/>
	<g>
		<path fill="none" stroke="#FFFFFF" stroke-miterlimit="10" d="M79.072,17.653c-4.5,0-12.375,11.099-13.649,27.974
			c-0.15,2.024-0.375,4.649-0.375,7.425c0,5.55,0.825,11.324,4.425,11.324c8.549,0,13.649-18.449,13.649-35.849
			C83.122,22.378,82.597,17.653,79.072,17.653z"/>
		<linearGradient id="SVGID_2_" gradientUnits="userSpaceOnUse" x1="73.2593" y1="8.811" x2="73.2593" y2="112.2873">
			<stop  offset="0.1354" style="stop-color:#FFFFFF"/>
			<stop  offset="0.3305" style="stop-color:#C3C3C3"/>
			<stop  offset="0.7134" style="stop-color:#515151"/>
			<stop  offset="0.8833" style="stop-color:#242424"/>
		</linearGradient>
		<path fill="url(#SVGID_2_)" stroke="#FFFFFF" stroke-miterlimit="10" d="M79.597,13.753c-16.125,0-26.024,16.725-26.024,37.198
			c0,12.45,2.625,19.725,15.524,19.725c15.374,0,23.849-22.424,23.849-37.349C92.946,20.728,88.971,13.753,79.597,13.753z
			 M69.472,64.376c-3.6,0-4.425-5.774-4.425-11.324c0-2.775,0.225-5.4,0.375-7.425c1.275-16.875,9.149-27.974,13.649-27.974
			c3.525,0,4.05,4.725,4.05,10.874C83.122,45.927,78.021,64.376,69.472,64.376z"/>
	</g>
	<linearGradient id="SVGID_3_" gradientUnits="userSpaceOnUse" x1="105.2085" y1="8.8115" x2="105.2085" y2="112.2869">
		<stop  offset="0.1354" style="stop-color:#FFFFFF"/>
		<stop  offset="0.3305" style="stop-color:#C3C3C3"/>
		<stop  offset="0.7134" style="stop-color:#515151"/>
		<stop  offset="0.8833" style="stop-color:#242424"/>
	</linearGradient>
	<path fill="url(#SVGID_3_)" stroke="#FFFFFF" stroke-miterlimit="10" d="M96.622,23.203h7.125l-9.9,46.798h10.8l11.924-56.098
		c-9.074,5.399-14.924,5.85-19.049,5.85L96.622,23.203z"/>
	<linearGradient id="SVGID_4_" gradientUnits="userSpaceOnUse" x1="139.4819" y1="8.811" x2="139.4819" y2="112.2873">
		<stop  offset="0.1354" style="stop-color:#FFFFFF"/>
		<stop  offset="0.3305" style="stop-color:#C3C3C3"/>
		<stop  offset="0.7134" style="stop-color:#515151"/>
		<stop  offset="0.8833" style="stop-color:#242424"/>
	</linearGradient>
	<path fill="url(#SVGID_4_)" stroke="#FFFFFF" stroke-miterlimit="10" d="M157.444,13.753h-24.599c-7.35,0-10.2,2.625-10.2,7.5
		c0,1.274,0.225,2.774,0.6,4.35c3.375-3.75,9-5.325,15.524-5.325c2.025,0,4.2,0.15,6.375,0.45
		c-12.6,14.55-23.624,27.674-23.624,39.898c0,7.65,3.225,9.375,7.725,9.375c3.15,0,6-0.525,6.899-2.925
		c-2.7-2.25-3.675-4.274-3.675-7.274c0-2.7,0.75-5.925,2.4-9.675C136.97,45.252,153.544,19.527,157.444,13.753z"/>
	<linearGradient id="SVGID_5_" gradientUnits="userSpaceOnUse" x1="194.8052" y1="8.811" x2="194.8052" y2="112.2873">
		<stop  offset="0.1354" style="stop-color:#FFFFFF"/>
		<stop  offset="0.3305" style="stop-color:#C3C3C3"/>
		<stop  offset="0.7134" style="stop-color:#515151"/>
		<stop  offset="0.8833" style="stop-color:#242424"/>
	</linearGradient>
	<path fill="url(#SVGID_5_)" stroke="#FFFFFF" stroke-miterlimit="10" d="M217.926,22.8c0-6.561-5.52-12.801-18.161-12.801
		c-13.36,0-28.081,10.16-28.081,20.801c0,5.76,3.04,7.76,8.56,7.76c-0.08-0.72-1.12-1.359-1.12-5.439c0-12.16,8.64-19.44,21.6-19.44
		c6.24,0,8.8,3.92,8.8,8.4c0,6.08-4.721,13.92-11.36,13.92h-0.64l3.92-18.48l-11.84,1.6l-10.88,50.882h11.521l6.4-30.161
		c1.04-0.16,1.92-0.319,2.641-0.319c3.599,0,4.8,2.239,4.8,5.439c0,6.08-4.241,15.761-4.241,21.041c0,2.64,1.04,5.36,6.241,5.36
		c1.92,0,4.559-0.4,7.92-1.36c-1.92-0.72-3.121-2.88-3.121-5.28c0-5.04,3.92-13.681,3.92-20.24c0-3.761-1.279-6.801-5.52-8.001
		C214.805,33.2,217.926,27.68,217.926,22.8z"/>
	<g>
		<path fill="none" stroke="#FFFFFF" stroke-miterlimit="10" d="M241.285,34.56c-6.801,0-11.201,14.4-11.201,21.921
			c0,6.16,2.561,6.24,4.002,6.24c2.318,0,5.68-2.4,6.639-7.04l3.84-18.081C244.564,36.64,243.846,34.56,241.285,34.56z"/>
		<path fill="none" stroke="#FFFFFF" stroke-miterlimit="10" d="M281.844,35.36c-1.76,0-4,1.359-5.52,3.92l-4.721,22.4
			c0.32,0.88,1.201,1.84,3.041,1.84c8.4,0,11.199-14,11.199-21.521C285.844,35.84,283.285,35.36,281.844,35.36z"/>
		<linearGradient id="SVGID_6_" gradientUnits="userSpaceOnUse" x1="257.5244" y1="8.8115" x2="257.5244" y2="112.2869">
			<stop  offset="0.1354" style="stop-color:#FFFFFF"/>
			<stop  offset="0.3305" style="stop-color:#C3C3C3"/>
			<stop  offset="0.7134" style="stop-color:#515151"/>
			<stop  offset="0.8833" style="stop-color:#242424"/>
		</linearGradient>
		<path fill="url(#SVGID_6_)" stroke="#FFFFFF" stroke-miterlimit="10" d="M287.045,29.6c-4,0-7.041,1.44-9.361,3.44l1.281-6
			h-11.521l-6.076,28.641h-0.002c-1.199,4-3.359,7.521-6.48,7.521c-2.24,0-3.279-1.2-3.279-3.44c0-0.72,0.08-1.521,0.32-2.561
			l5.76-27.2h-11.52l-0.881,4.24V33.68c0-2.32-1.92-4.08-6.48-4.08c-13.92,0-20.561,17.2-20.561,28.001
			c0,9.521,5.201,12.881,10.641,12.881c5.68,0,9.439-3.681,11.92-7.36c0.48,4.8,3.361,7.36,7.84,7.36
			c2.826,0,6.881-0.754,10.625-4.92l-5.186,24.439l12.08-2.88l4.16-19.521c0.879,1.521,2.801,2.881,6.801,2.881
			c15.52,0,19.68-17.44,19.68-28.241C296.805,32.72,292.484,29.6,287.045,29.6z M240.725,55.681c-0.959,4.64-4.32,7.04-6.639,7.04
			c-1.441,0-4.002-0.08-4.002-6.24c0-7.521,4.4-21.921,11.201-21.921c2.561,0,3.279,2.08,3.279,3.04L240.725,55.681z
			 M274.645,63.521c-1.84,0-2.721-0.96-3.041-1.84l4.721-22.4c1.52-2.561,3.76-3.92,5.52-3.92c1.441,0,4,0.479,4,6.64
			C285.844,49.521,283.045,63.521,274.645,63.521z"/>
	</g>
	<g>
		<path fill="none" stroke="#FFFFFF" stroke-miterlimit="10" d="M344.643,38.8c-0.16-3.359-0.961-4.64-3.041-4.64
			c-5.68,0-10.641,14.64-10.641,22.48c0,5.28,1.041,6.48,4.08,6.48c3.922,0,8.002-7.2,9.281-16.641c-1.68-0.4-2.16-1.761-2.16-3.36
			C342.162,40.88,343.203,39.44,344.643,38.8z"/>
		<linearGradient id="SVGID_7_" gradientUnits="userSpaceOnUse" x1="342.2822" y1="8.811" x2="342.2822" y2="112.2874">
			<stop  offset="0.1354" style="stop-color:#FFFFFF"/>
			<stop  offset="0.3305" style="stop-color:#C3C3C3"/>
			<stop  offset="0.7134" style="stop-color:#515151"/>
			<stop  offset="0.8833" style="stop-color:#242424"/>
		</linearGradient>
		<path fill="url(#SVGID_7_)" stroke="#FFFFFF" stroke-miterlimit="10" d="M380.881,30c-3.84,0-6.879,2.56-9.68,4.96L372.24,30
			h-11.52l-2.266,10.686c-2.229,0.928-4.498,1.555-6.373,1.555c-0.24,0-0.561,0-0.879-0.16c0-8.4-3.361-12.8-10.24-12.8
			c-16.48,0-21.922,19.2-21.922,28.4c0,0.212,0.018,0.405,0.023,0.611c-1.461,2.638-3.709,4.429-6.102,4.429
			c-2.24,0-3.281-0.72-3.281-2.96c0-0.72,0.08-1.521,0.32-2.561l5.121-24h4.799l0.641-3.2h-4.801l2.721-12.641l-11.84,1.601
			l-2.4,11.04h-2.641l-0.639,3.2h2.639l-4.799,22.48c-0.4,1.92-0.641,3.68-0.641,5.2c0,6.72,3.76,9.601,8.561,9.601
			c3.311,0,8.732-1.04,13.139-7.391c1.764,5.128,6.25,7.23,11.98,7.23c9.84,0,17.84-9.28,19.121-24.081
			c2.369-0.39,4.635-1.026,6.709-1.853l-5.432,25.613h11.521L370.16,39.6c2.002-1.84,3.441-3.04,5.842-3.04
			c2.398,0,0.16,5.28,4.639,5.28c3.92,0,5.762-3.04,5.762-5.84C386.402,32.96,384.48,30,380.881,30z M344.322,46.48
			c-1.279,9.44-5.359,16.641-9.281,16.641c-3.039,0-4.08-1.2-4.08-6.48c0-7.841,4.961-22.48,10.641-22.48
			c2.08,0,2.881,1.28,3.041,4.64c-1.439,0.641-2.48,2.08-2.48,4.32C342.162,44.72,342.643,46.08,344.322,46.48z"/>
	</g>
</g>
</svg>
