<?xml version="1.0" encoding="utf-8"?>
<!-- Generator: Adobe Illustrator 16.0.4, SVG Export Plug-In . SVG Version: 6.00 Build 0)  -->
<!DOCTYPE svg PUBLIC "-//W3C//DTD SVG 1.1//EN" "http://www.w3.org/Graphics/SVG/1.1/DTD/svg11.dtd">
<svg version="1.1" id="Layer_1" xmlns="http://www.w3.org/2000/svg" xmlns:xlink="http://www.w3.org/1999/xlink" x="0px" y="0px"
	viewBox="0 0 400 100" enable-background="new 0 0 400 100" xml:space="preserve">
<g>
	<linearGradient id="SVGID_1_" gradientUnits="userSpaceOnUse" x1="61.7837" y1="14.0708" x2="61.7837" y2="118.4145">
		<stop  offset="0.1354" style="stop-color:#FFFFFF"/>
		<stop  offset="0.3305" style="stop-color:#C3C3C3"/>
		<stop  offset="0.7134" style="stop-color:#515151"/>
		<stop  offset="0.8833" style="stop-color:#242424"/>
	</linearGradient>
	<path fill="url(#SVGID_1_)" stroke="#FFFFFF" stroke-miterlimit="10" d="M79.521,31.273c0-7.275-3.975-12.075-14.249-12.075
		c-11.325,0-15.449,5.925-15.449,11.024c0,4.35,2.324,6.75,5.399,6.75c1.8,0,3.75-0.825,5.7-2.55
		c-2.101-0.601-2.851-3.375-2.851-5.101c0-3.749,1.05-6.074,6.075-6.074c2.175,0,4.574,2.475,4.574,6.15
		c0,19.949-24.674,27.299-24.674,43.723c0,0.825,0,1.65,0.15,2.475c1.5-0.524,4.199-2.1,5.925-2.1c7.649,0,10.425,2.7,18.599,2.7
		c7.425,0,8.925-3.9,8.925-11.25c0-1.05,0-2.1-0.075-3.3c-3.524,3.3-4.8,5.175-10.049,5.175c-5.625,0-9.9-1.35-14.325-1.35h-0.375
		C59.047,55.347,79.521,47.997,79.521,31.273z"/>
	<g>
		<path fill="none" stroke="#FFFFFF" stroke-miterlimit="10" d="M109.521,23.023c-4.5,0-12.375,11.1-13.649,27.974
			c-0.15,2.024-0.375,4.649-0.375,7.425c0,5.55,0.825,11.324,4.425,11.324c8.55,0,13.649-18.449,13.649-35.848
			C113.57,27.748,113.045,23.023,109.521,23.023z"/>
		<linearGradient id="SVGID_2_" gradientUnits="userSpaceOnUse" x1="103.708" y1="14.0703" x2="103.708" y2="118.4149">
			<stop  offset="0.1354" style="stop-color:#FFFFFF"/>
			<stop  offset="0.3305" style="stop-color:#C3C3C3"/>
			<stop  offset="0.7134" style="stop-color:#515151"/>
			<stop  offset="0.8833" style="stop-color:#242424"/>
		</linearGradient>
		<path fill="url(#SVGID_2_)" stroke="#FFFFFF" stroke-miterlimit="10" d="M110.045,19.123c-16.124,0-26.023,16.725-26.023,37.199
			c0,12.449,2.625,19.724,15.524,19.724c15.374,0,23.849-22.424,23.849-37.349C123.395,26.098,119.42,19.123,110.045,19.123z
			 M99.921,69.746c-3.6,0-4.425-5.774-4.425-11.324c0-2.775,0.225-5.4,0.375-7.425c1.274-16.874,9.149-27.974,13.649-27.974
			c3.524,0,4.05,4.725,4.05,10.875C113.57,51.297,108.471,69.746,99.921,69.746z"/>
	</g>
	<rect x="15.083" y="7.41" fill="none" width="369.834" height="95.59"/>
	<linearGradient id="SVGID_3_" gradientUnits="userSpaceOnUse" x1="135.6577" y1="14.0708" x2="135.6577" y2="118.4145">
		<stop  offset="0.1354" style="stop-color:#FFFFFF"/>
		<stop  offset="0.3305" style="stop-color:#C3C3C3"/>
		<stop  offset="0.7134" style="stop-color:#515151"/>
		<stop  offset="0.8833" style="stop-color:#242424"/>
	</linearGradient>
	<path fill="url(#SVGID_3_)" stroke="#FFFFFF" stroke-miterlimit="10" d="M127.07,28.573h7.125l-9.899,46.798h10.799l11.925-56.098
		c-9.074,5.4-14.924,5.85-19.049,5.85L127.07,28.573z"/>
	<linearGradient id="SVGID_4_" gradientUnits="userSpaceOnUse" x1="169.9307" y1="14.0703" x2="169.9307" y2="118.4149">
		<stop  offset="0.1354" style="stop-color:#FFFFFF"/>
		<stop  offset="0.3305" style="stop-color:#C3C3C3"/>
		<stop  offset="0.7134" style="stop-color:#515151"/>
		<stop  offset="0.8833" style="stop-color:#242424"/>
	</linearGradient>
	<path fill="url(#SVGID_4_)" stroke="#FFFFFF" stroke-miterlimit="10" d="M187.893,19.123h-24.599c-7.35,0-10.2,2.625-10.2,7.5
		c0,1.275,0.226,2.775,0.601,4.35c3.374-3.75,8.999-5.324,15.524-5.324c2.024,0,4.199,0.15,6.374,0.449
		c-12.6,14.55-23.624,27.674-23.624,39.898c0,7.65,3.226,9.375,7.725,9.375c3.15,0,6-0.525,6.9-2.925
		c-2.7-2.25-3.675-4.274-3.675-7.274c0-2.7,0.75-5.925,2.399-9.675C167.418,50.622,183.993,24.898,187.893,19.123z"/>
	<linearGradient id="SVGID_5_" gradientUnits="userSpaceOnUse" x1="223.6289" y1="14.0703" x2="223.6289" y2="118.4149">
		<stop  offset="0.1354" style="stop-color:#FFFFFF"/>
		<stop  offset="0.3305" style="stop-color:#C3C3C3"/>
		<stop  offset="0.7134" style="stop-color:#515151"/>
		<stop  offset="0.8833" style="stop-color:#242424"/>
	</linearGradient>
	<path fill="url(#SVGID_5_)" stroke="#FFFFFF" stroke-miterlimit="10" d="M226.816,19.123c-18.524,0-25.574,9.525-25.574,19.5
		c0,5.399,2.85,7.274,8.024,7.274c-0.074-0.675-1.05-1.274-1.05-5.101c0-11.999,3.976-15.299,9.75-15.523l-10.8,50.098h10.8
		l6.074-28.199h10.95l1.2-5.549h-10.95l3.15-14.925c3.449,0.75,7.05,1.425,10.499,1.425c5.85-1.275,6.075-5.85,7.125-9
		c-2.1,0.676-4.425,0.9-6.75,0.9C234.541,20.023,229.816,19.123,226.816,19.123z"/>
	<linearGradient id="SVGID_6_" gradientUnits="userSpaceOnUse" x1="244.5918" y1="14.0747" x2="244.5918" y2="118.4098">
		<stop  offset="0.1354" style="stop-color:#FFFFFF"/>
		<stop  offset="0.3305" style="stop-color:#C3C3C3"/>
		<stop  offset="0.7134" style="stop-color:#515151"/>
		<stop  offset="0.8833" style="stop-color:#242424"/>
	</linearGradient>
	<polygon fill="url(#SVGID_6_)" stroke="#FFFFFF" stroke-miterlimit="10" points="236.417,58.722 251.491,58.722 252.767,52.797
		237.767,52.797 	"/>
	<linearGradient id="SVGID_7_" gradientUnits="userSpaceOnUse" x1="269.6777" y1="14.0708" x2="269.6777" y2="118.4145">
		<stop  offset="0.1354" style="stop-color:#FFFFFF"/>
		<stop  offset="0.3305" style="stop-color:#C3C3C3"/>
		<stop  offset="0.7134" style="stop-color:#515151"/>
		<stop  offset="0.8833" style="stop-color:#242424"/>
	</linearGradient>
	<path fill="url(#SVGID_7_)" stroke="#FFFFFF" stroke-miterlimit="10" d="M261.091,28.573h7.125l-9.899,46.798h10.799l11.925-56.098
		c-9.074,5.4-14.924,5.85-19.049,5.85L261.091,28.573z"/>
	<linearGradient id="SVGID_8_" gradientUnits="userSpaceOnUse" x1="299.9023" y1="14.0708" x2="299.9023" y2="118.4145">
		<stop  offset="0.1354" style="stop-color:#FFFFFF"/>
		<stop  offset="0.3305" style="stop-color:#C3C3C3"/>
		<stop  offset="0.7134" style="stop-color:#515151"/>
		<stop  offset="0.8833" style="stop-color:#242424"/>
	</linearGradient>
	<path fill="url(#SVGID_8_)" stroke="#FFFFFF" stroke-miterlimit="10" d="M309.539,30.373c6.375,0,8.625-3.9,8.625-8.699
		c0-0.826-0.075-1.65-0.15-2.476c-4.574,1.8-8.324,2.399-12.149,2.399c-4.124,0-8.249-0.674-13.499-1.274l-6.149,29.924
		c2.85-1.8,7.124-4.2,11.174-4.2c5.025,0,8.25,3.676,8.25,10.875c0,6.524-3.3,13.8-9.524,13.8c-2.775,0-6.15-1.051-6.15-5.4
		c0-4.5,2.851-6.749,6.75-7.199c-0.524-2.625-2.399-3.825-5.324-3.825c-4.5,0-9.75,2.775-9.75,10.649c0,9.3,7.35,10.8,13.199,10.8
		c15.3,0,21.749-10.125,21.749-20.475c0-8.324-4.125-15.523-13.199-15.523c-2.774,0-5.925,0.674-9.375,2.324l3-13.574
		C300.09,28.873,305.564,30.373,309.539,30.373z"/>
	<g>
		<path fill="none" stroke="#FFFFFF" stroke-miterlimit="10" d="M347.789,23.023c-4.5,0-12.375,11.1-13.649,27.974
			c-0.15,2.024-0.375,4.649-0.375,7.425c0,5.55,0.825,11.324,4.425,11.324c8.55,0,13.649-18.449,13.649-35.848
			C351.839,27.748,351.313,23.023,347.789,23.023z"/>
		<linearGradient id="SVGID_9_" gradientUnits="userSpaceOnUse" x1="341.9766" y1="14.0703" x2="341.9766" y2="118.4149">
			<stop  offset="0.1354" style="stop-color:#FFFFFF"/>
			<stop  offset="0.3305" style="stop-color:#C3C3C3"/>
			<stop  offset="0.7134" style="stop-color:#515151"/>
			<stop  offset="0.8833" style="stop-color:#242424"/>
		</linearGradient>
		<path fill="url(#SVGID_9_)" stroke="#FFFFFF" stroke-miterlimit="10" d="M348.313,19.123c-16.124,0-26.023,16.725-26.023,37.199
			c0,12.449,2.625,19.724,15.524,19.724c15.374,0,23.849-22.424,23.849-37.349C361.663,26.098,357.688,19.123,348.313,19.123z
			 M338.189,69.746c-3.6,0-4.425-5.774-4.425-11.324c0-2.775,0.225-5.4,0.375-7.425c1.274-16.874,9.149-27.974,13.649-27.974
			c3.524,0,4.05,4.725,4.05,10.875C351.839,51.297,346.739,69.746,338.189,69.746z"/>
	</g>
</g>
</svg>
