<?xml version="1.0" encoding="utf-8"?>
<!-- Generator: Adobe Illustrator 16.0.4, SVG Export Plug-In . SVG Version: 6.00 Build 0)  -->
<!DOCTYPE svg PUBLIC "-//W3C//DTD SVG 1.1//EN" "http://www.w3.org/Graphics/SVG/1.1/DTD/svg11.dtd">
<svg version="1.1" id="Layer_1" xmlns="http://www.w3.org/2000/svg" xmlns:xlink="http://www.w3.org/1999/xlink" x="0px" y="0px"
	viewBox="0 0 400 100" enable-background="new 0 0 400 100" xml:space="preserve">
<g>
	<linearGradient id="SVGID_1_" gradientUnits="userSpaceOnUse" x1="49.9297" y1="13.2651" x2="49.9297" y2="117.6113">
		<stop  offset="0.1354" style="stop-color:#FFFFFF"/>
		<stop  offset="0.3305" style="stop-color:#C3C3C3"/>
		<stop  offset="0.7134" style="stop-color:#515151"/>
		<stop  offset="0.8833" style="stop-color:#242424"/>
	</linearGradient>
	<path fill="url(#SVGID_1_)" stroke="#FFFFFF" stroke-miterlimit="10" d="M59.754,29.114c1.425,1.649,3.976,1.949,5.175,1.949
		c3.825,0,5.25-2.925,5.25-6.899c0-7.274-6.975-10.05-13.949-10.05c-16.725,0-26.549,14.55-26.549,28.874
		c0,10.35,3.899,19.2,16.124,19.2c0.675,0,4.8-0.375,9.149-2.701l-3,13.426c-1.725,7.725-4.125,9.225-7.5,9.225
		c-3.149,0-4.725-2.475-4.725-5.1c0-2.775,1.801-5.701,5.25-5.701c1.5,0,2.625,0.375,4.5,1.951c0.3-1.125,0.45-2.176,0.45-3
		c0-4.801-4.351-5.025-7.351-5.025c-5.924,0-9.148,5.176-9.148,10.275c0,5.174,3.299,10.35,10.424,10.35
		c12.3,0,16.725-7.201,19.199-18.674l6.15-28.2l-9.675-0.075l-3.226,14.25c-1.574,2.1-3.6,2.775-6.374,2.775
		c-6.226,0-8.7-5.701-8.7-12.375c0-11.925,8.4-25.949,16.65-25.949c4.799,0,5.174,4.125,5.174,5.324
		C63.054,24.838,61.629,28.588,59.754,29.114z"/>
	<linearGradient id="SVGID_2_" gradientUnits="userSpaceOnUse" x1="98.791" y1="13.2651" x2="98.791" y2="117.6099">
		<stop  offset="0.1354" style="stop-color:#FFFFFF"/>
		<stop  offset="0.3305" style="stop-color:#C3C3C3"/>
		<stop  offset="0.7134" style="stop-color:#515151"/>
		<stop  offset="0.8833" style="stop-color:#242424"/>
	</linearGradient>
	<path fill="url(#SVGID_2_)" stroke="#FFFFFF" stroke-miterlimit="10" d="M97.628,14.189c-18.523,0-25.573,9.524-25.573,19.499
		c0,5.4,2.85,7.275,8.024,7.275c-0.075-0.676-1.05-1.275-1.05-5.101c0-12.074,6.149-15.149,14.099-15.149h0.9L83.379,70.361h10.8
		l10.35-48.148c4.05,0.9,7.949,1.65,11.625,1.65c5.999,0,9.225-3,9.374-9.524c-2.024,0.825-5.25,1.574-8.7,1.574
		C109.478,15.914,106.703,14.189,97.628,14.189z"/>
	<linearGradient id="SVGID_3_" gradientUnits="userSpaceOnUse" x1="120.0879" y1="13.2651" x2="120.0879" y2="117.6099">
		<stop  offset="0.1354" style="stop-color:#FFFFFF"/>
		<stop  offset="0.3305" style="stop-color:#C3C3C3"/>
		<stop  offset="0.7134" style="stop-color:#515151"/>
		<stop  offset="0.8833" style="stop-color:#242424"/>
	</linearGradient>
	<path fill="url(#SVGID_3_)" stroke="#FFFFFF" stroke-miterlimit="10" d="M120.679,41.296c1.818,0.357,3.879,0.763,5.578,0.763
		c3.882,0,6.02-2.155,6.02-6.068c0-0.556-0.049-1.102-0.098-1.63l-0.061-0.663l-0.621,0.244c-2.639,1.038-4.98,1.501-7.593,1.501
		c-1.976,0-3.968-0.247-6.274-0.534c-0.734-0.091-1.502-0.187-2.311-0.279l-0.453-0.052l-4.266,20.752l0.994-0.627
		c1.773-1.121,4.418-2.611,6.885-2.611c3.083,0,4.781,2.295,4.781,6.461c0,4.096-2.094,8.332-5.598,8.332
		c-1.567,0-3.436-0.512-3.436-2.955c0-3.189,2.43-3.945,3.877-4.111l0.541-0.062l-0.107-0.533c-0.26-1.301-1.148-2.85-3.898-2.85
		c-3.109,0-6.74,1.916-6.74,7.316c0,4.918,3.01,7.412,8.948,7.412c10.644,0,14.421-7.328,14.421-13.605
		c0-6.34-3.513-10.436-8.949-10.436c-1.705,0-3.484,0.379-5.298,1.128l1.606-7.27C119.226,41.011,119.936,41.15,120.679,41.296z"/>
	<g>
		<path fill="none" stroke="#FFFFFF" stroke-miterlimit="10" d="M150.736,37.355c-2.44,0-7.421,6.622-8.238,17.444l-0.033,0.439
			c-0.092,1.209-0.206,2.713-0.206,4.275c0,3.078,0.405,6.748,2.333,6.748c5.087,0,8.236-11.65,8.236-22.446
			C152.828,39.938,152.472,37.355,150.736,37.355z"/>
		<linearGradient id="SVGID_4_" gradientUnits="userSpaceOnUse" x1="147.0156" y1="13.2651" x2="147.0156" y2="117.6099">
			<stop  offset="0.1354" style="stop-color:#FFFFFF"/>
			<stop  offset="0.3305" style="stop-color:#C3C3C3"/>
			<stop  offset="0.7134" style="stop-color:#515151"/>
			<stop  offset="0.8833" style="stop-color:#242424"/>
		</linearGradient>
		<path fill="url(#SVGID_4_)" stroke="#FFFFFF" stroke-miterlimit="10" d="M151.072,33.859c-10.103,0-17.157,9.996-17.157,24.309
			c0,8.104,1.746,13.125,10.437,13.125c10.151,0,15.765-14.43,15.765-24.405C160.116,38.121,157.158,33.859,151.072,33.859z
			 M144.592,66.262c-1.928,0-2.333-3.67-2.333-6.748c0-1.562,0.114-3.066,0.206-4.275l0.033-0.439
			c0.817-10.822,5.798-17.444,8.238-17.444c1.735,0,2.092,2.583,2.092,6.461C152.828,54.611,149.679,66.262,144.592,66.262z"/>
	</g>
	<g>
		<path fill="none" stroke="#FFFFFF" stroke-miterlimit="10" d="M177.903,37.355c-2.439,0-7.421,6.622-8.238,17.444l-0.033,0.439
			c-0.092,1.209-0.205,2.713-0.205,4.275c0,3.078,0.404,6.748,2.332,6.748c5.088,0,8.236-11.65,8.236-22.446
			C179.995,39.938,179.64,37.355,177.903,37.355z"/>
		<linearGradient id="SVGID_5_" gradientUnits="userSpaceOnUse" x1="174.1826" y1="13.2651" x2="174.1826" y2="117.6099">
			<stop  offset="0.1354" style="stop-color:#FFFFFF"/>
			<stop  offset="0.3305" style="stop-color:#C3C3C3"/>
			<stop  offset="0.7134" style="stop-color:#515151"/>
			<stop  offset="0.8833" style="stop-color:#242424"/>
		</linearGradient>
		<path fill="url(#SVGID_5_)" stroke="#FFFFFF" stroke-miterlimit="10" d="M178.239,33.859c-10.102,0-17.158,9.996-17.158,24.309
			c0,8.104,1.746,13.125,10.438,13.125c10.15,0,15.766-14.43,15.766-24.405C187.284,38.121,184.325,33.859,178.239,33.859z
			 M171.759,66.262c-1.928,0-2.332-3.67-2.332-6.748c0-1.562,0.113-3.066,0.205-4.275l0.033-0.439
			c0.817-10.822,5.799-17.444,8.238-17.444c1.736,0,2.092,2.583,2.092,6.461C179.995,54.611,176.847,66.262,171.759,66.262z"/>
	</g>
	<g>
		<path fill="none" stroke="#FFFFFF" stroke-miterlimit="10" d="M262.847,41.113c-0.15-3.149-0.9-4.35-2.85-4.35
			c-5.325,0-9.975,13.725-9.975,21.075c0,4.949,0.975,6.074,3.824,6.074c3.676,0,7.5-6.75,8.699-15.599
			c-1.574-0.375-2.024-1.65-2.024-3.15C260.521,43.063,261.497,41.713,262.847,41.113z"/>
		<path fill="none" stroke="#FFFFFF" stroke-miterlimit="10" d="M291.796,37.963c-1.049,0-3.6,0.375-4.424,1.35l-4.125,19.048
			c-0.15,0.602-0.225,1.201-0.225,1.727c0,2.174,1.274,3.449,3.975,3.449c4.875,0,8.774-10.5,8.774-18.375
			C295.771,41.488,294.497,37.963,291.796,37.963z"/>
		<linearGradient id="SVGID_6_" gradientUnits="userSpaceOnUse" x1="253.6973" y1="13.2651" x2="253.6973" y2="117.6116">
			<stop  offset="0.1354" style="stop-color:#FFFFFF"/>
			<stop  offset="0.3305" style="stop-color:#C3C3C3"/>
			<stop  offset="0.7134" style="stop-color:#515151"/>
			<stop  offset="0.8833" style="stop-color:#242424"/>
		</linearGradient>
		<path fill="url(#SVGID_6_)" stroke="#FFFFFF" stroke-miterlimit="10" d="M294.497,32.638c-1.5,0-3.076,0.226-6.15,2.1l3.6-16.874
			l-11.1,1.5l-5.02,23.502c-2.101,0.878-4.239,1.472-6.006,1.472c-0.225,0-0.525,0-0.825-0.149c0-7.875-3.149-12-9.6-12
			c-15.206,0-20.382,17.433-20.541,26.205c-3.419,3.734-8.183,5.969-13.358,5.969c-7.199,0-9-4.799-9-11.699
			c0-15.299,7.35-35.023,15.6-35.023c3.375,0,4.575,2.175,4.575,4.574c0,2.851-1.65,6-3.45,6.9c1.426,1.649,3.075,1.949,4.275,1.949
			c3.824,0,5.25-2.925,5.25-6.899c0-7.274-5.476-10.05-12.525-10.05c-19.648,0-26.174,25.424-26.174,39
			c0,13.498,5.324,18.449,16.424,18.449c5.629,0,13.801-2.664,18.725-9.232c1.232,5.941,5.732,8.332,11.65,8.332
			c9.225,0,16.725-8.699,17.925-22.575c2.231-0.366,4.364-0.968,6.313-1.747l-2.263,10.597c-0.375,1.574-0.524,3-0.524,4.275
			c0,6,3.6,9.6,10.499,9.6c15.899,0,20.55-16.574,20.55-25.35C303.347,35.938,299.746,32.638,294.497,32.638z M262.546,48.313
			c-1.199,8.849-5.023,15.599-8.699,15.599c-2.85,0-3.824-1.125-3.824-6.074c0-7.35,4.649-21.075,9.975-21.075
			c1.949,0,2.699,1.2,2.85,4.35c-1.35,0.601-2.325,1.95-2.325,4.05C260.521,46.663,260.972,47.938,262.546,48.313z M286.997,63.537
			c-2.7,0-3.975-1.275-3.975-3.449c0-0.525,0.074-1.125,0.225-1.727l4.125-19.048c0.824-0.975,3.375-1.35,4.424-1.35
			c2.701,0,3.976,3.524,3.976,7.199C295.771,53.037,291.872,63.537,286.997,63.537z"/>
	</g>
	<linearGradient id="SVGID_7_" gradientUnits="userSpaceOnUse" x1="319.2832" y1="13.2651" x2="319.2832" y2="117.6099">
		<stop  offset="0.1354" style="stop-color:#FFFFFF"/>
		<stop  offset="0.3305" style="stop-color:#C3C3C3"/>
		<stop  offset="0.7134" style="stop-color:#515151"/>
		<stop  offset="0.8833" style="stop-color:#242424"/>
	</linearGradient>
	<path fill="url(#SVGID_7_)" stroke="#FFFFFF" stroke-miterlimit="10" d="M330.12,32.864c-3.6,0-6.449,2.399-9.074,4.649
		l0.975-4.649h-10.8l-7.95,37.498h10.801l5.999-28.499c1.875-1.725,3.226-2.85,5.476-2.85s0.149,4.95,4.35,4.95
		c3.674,0,5.399-2.851,5.399-5.476C335.295,35.638,333.495,32.864,330.12,32.864z"/>
	<g>
		<path fill="none" stroke="#FFFFFF" stroke-miterlimit="10" d="M354.944,37.138c-6.375,0-10.5,13.499-10.5,20.549
			c0,5.775,2.4,5.85,3.75,5.85c2.176,0,5.325-2.25,6.225-6.6l3.601-16.95C358.02,39.088,357.345,37.138,354.944,37.138z"/>
		<linearGradient id="SVGID_8_" gradientUnits="userSpaceOnUse" x1="351.832" y1="13.2646" x2="351.832" y2="117.612">
			<stop  offset="0.1354" style="stop-color:#FFFFFF"/>
			<stop  offset="0.3305" style="stop-color:#C3C3C3"/>
			<stop  offset="0.7134" style="stop-color:#515151"/>
			<stop  offset="0.8833" style="stop-color:#242424"/>
		</linearGradient>
		<path fill="url(#SVGID_8_)" stroke="#FFFFFF" stroke-miterlimit="10" d="M370.319,32.864h-10.8l-0.825,3.975v-0.525
			c0-2.175-1.8-3.824-6.074-3.824c-13.05,0-19.275,16.124-19.275,26.248c0,8.926,4.875,12.076,9.975,12.076
			c5.325,0,8.926-3.525,11.176-6.975c0.6,4.35,3.299,6.975,7.35,6.975c4.049,0,5.475-2.326,7.499-7.576
			c-0.524,0.227-0.975,0.301-1.649,0.301c-2.1,0-3.075-0.676-3.075-2.775c0-0.674,0.075-1.424,0.3-2.4L370.319,32.864z
			 M354.419,56.938c-0.899,4.35-4.049,6.6-6.225,6.6c-1.35,0-3.75-0.074-3.75-5.85c0-7.05,4.125-20.549,10.5-20.549
			c2.4,0,3.075,1.95,3.075,2.85L354.419,56.938z"/>
	</g>
</g>
</svg>
