<?xml version="1.0" encoding="utf-8"?>
<!-- Generator: Adobe Illustrator 16.0.4, SVG Export Plug-In . SVG Version: 6.00 Build 0)  -->
<!DOCTYPE svg PUBLIC "-//W3C//DTD SVG 1.1//EN" "http://www.w3.org/Graphics/SVG/1.1/DTD/svg11.dtd">
<svg version="1.1" id="Layer_1" xmlns="http://www.w3.org/2000/svg" xmlns:xlink="http://www.w3.org/1999/xlink" x="0px" y="0px"
	 viewBox="0 21.5 100 50" enable-background="new 0 21.5 100 50" xml:space="preserve">
<g>
	<linearGradient id="SVGID_1_" gradientUnits="userSpaceOnUse" x1="49.9995" y1="24.7905" x2="49.9995" y2="81.5527">
		<stop  offset="0.1354" style="stop-color:#FFFFFF"/>
		<stop  offset="0.3305" style="stop-color:#C3C3C3"/>
		<stop  offset="0.7134" style="stop-color:#515151"/>
		<stop  offset="0.8833" style="stop-color:#242424"/>
	</linearGradient>
	<path fill="url(#SVGID_1_)" d="M94.314,60.105L51.771,28.998c-0.527-0.385-1.148-0.578-1.771-0.578
		c-0.621,0-1.244,0.193-1.771,0.578L5.686,60.105c-0.773,0.564-1.229,1.464-1.23,2.421c0,0.957,0.457,1.856,1.229,2.422l0.707,0.518
		c0.527,0.386,1.15,0.579,1.771,0.579c0.622,0,1.244-0.192,1.771-0.578L50,36.17l40.066,29.297c0.527,0.386,1.148,0.578,1.771,0.578
		s1.244-0.193,1.772-0.579l0.707-0.518c0.771-0.565,1.228-1.465,1.228-2.422S95.087,60.67,94.314,60.105z"/>
	<path fill="#FFFFFF" d="M91.837,66.545c-0.748,0-1.462-0.233-2.065-0.675L50,36.79L10.229,65.87
		c-1.206,0.883-2.924,0.884-4.133-0.001l-0.707-0.518c-0.897-0.657-1.433-1.714-1.433-2.825c0.001-1.113,0.538-2.17,1.436-2.825
		l42.544-31.107c1.204-0.881,2.922-0.883,4.131,0l42.544,31.108c0.898,0.656,1.435,1.712,1.435,2.824s-0.535,2.168-1.432,2.825
		l-0.708,0.518C93.299,66.312,92.584,66.545,91.837,66.545z M50,35.55l40.361,29.513c0.861,0.629,2.088,0.631,2.953-0.002
		l0.707-0.517c0.64-0.47,1.022-1.224,1.022-2.019c0-0.794-0.383-1.549-1.024-2.018L51.476,29.401c-0.863-0.631-2.09-0.63-2.951,0
		L5.98,60.509c-0.641,0.469-1.024,1.223-1.025,2.019c0,0.793,0.383,1.548,1.024,2.018l0.707,0.518
		c0.864,0.631,2.091,0.629,2.952,0.001L50,35.55z"/>
</g>
</svg>
